<?xml version="1.0" encoding="UTF-8" standalone="no"?>
<!-- Created with Inkscape (http://www.inkscape.org/) -->

<svg
   sodipodi:docname="audio-volume-high.svg"
   height="22"
   id="svg6530"
   version="1.1"
   inkscape:version="1.2.2 (b0a8486541, 2022-12-01)"
   viewBox="0 0 22 22"
   width="22"
   xmlns:inkscape="http://www.inkscape.org/namespaces/inkscape"
   xmlns:sodipodi="http://sodipodi.sourceforge.net/DTD/sodipodi-0.dtd"
   xmlns="http://www.w3.org/2000/svg"
   xmlns:svg="http://www.w3.org/2000/svg"
   xmlns:rdf="http://www.w3.org/1999/02/22-rdf-syntax-ns#"
   xmlns:cc="http://creativecommons.org/ns#"
   xmlns:dc="http://purl.org/dc/elements/1.1/">
  <defs
     id="defs6532">
    <linearGradient
       id="linearGradient5606"
       inkscape:swatch="solid">
      <stop
         id="stop5608"
         offset="0"
         style="stop-color:#000000;stop-opacity:1;" />
    </linearGradient>
  </defs>
  <sodipodi:namedview
     inkscape:bbox-nodes="true"
     bordercolor="#666666"
     borderopacity="1.0"
     inkscape:current-layer="layer1"
     inkscape:cx="5.5281758"
     inkscape:cy="12.055796"
     inkscape:document-units="px"
     id="base"
     inkscape:object-nodes="true"
     inkscape:object-paths="true"
     pagecolor="#454d50"
     inkscape:pageopacity="0"
     inkscape:pageshadow="2"
     showgrid="false"
     inkscape:snap-bbox="true"
     inkscape:snap-bbox-edge-midpoints="true"
     inkscape:snap-bbox-midpoints="true"
     inkscape:snap-smooth-nodes="true"
     units="px"
     inkscape:window-height="1012"
     inkscape:window-maximized="1"
     inkscape:window-width="1920"
     inkscape:window-x="1920"
     inkscape:window-y="924"
     inkscape:zoom="16.008898"
     inkscape:showpageshadow="2"
     inkscape:pagecheckerboard="0"
     inkscape:deskcolor="#454d50">
    <inkscape:grid
       empspacing="4"
       id="grid8845"
       originx="-32.999997"
       originy="-680.99826"
       type="xygrid" />
  </sodipodi:namedview>
  <metadata
     id="metadata6535">
    <rdf:RDF>
      <cc:Work
         rdf:about="">
        <dc:format>image/svg+xml</dc:format>
        <dc:type
           rdf:resource="http://purl.org/dc/dcmitype/StillImage" />
        <dc:title />
      </cc:Work>
    </rdf:RDF>
  </metadata>
  <g
     inkscape:groupmode="layer"
     id="layer1"
     inkscape:label="panel"
     style="display:inline"
     transform="translate(-32.999997,-349.3639)">
    <rect
       height="22"
       id="rect5073"
       inkscape:label="audio-volume-high"
       style="color:#bebebe;display:inline;overflow:visible;visibility:visible;opacity:0.1;fill:none;stroke:none;stroke-width:1;marker:none"
       width="22"
       x="32.999996"
       y="349.36389" />
    <path
       inkscape:connector-curvature="0"
       d="m 47.7898,360.3639 c 0,-1.3 -0.72,-2.42 -1.79,-3 l 0,6 c 1.06,-0.58 1.79,-1.7 1.79,-3 z m -10.69889,-2.90909 0,5.81818 2.81818,0 4.09071,4.09091 0,-14 -4.0908,4.09091 z m 8.90889,-4.09091 0,1.5 c 2.32,0.74 4,2.93 4,5.5 0,2.57 -1.68,4.76 -4,5.5 l 0,1.5 c 3.15,-0.78 5.5,-3.6 5.5,-7 0,-3.4 -2.35,-6.22 -5.5,-7 z"
       id="path5075"
       sodipodi:nodetypes="sccscccccccccsccsc"
       style="fill:#555555;fill-opacity:1;stroke:none" />
    <path
       style="fill:#00ffff;stroke-width:0.0883883;fill-opacity:1"
       d="M 8.9272231,15.909903 6.8957324,13.876971 H 5.5028953 4.1100582 V 11.004349 8.131728 H 5.5014839 6.8929096 L 8.9486295,6.0774043 11.004349,4.0230804 v 6.9598776 c 0,3.827932 -0.01027,6.959877 -0.02282,6.959877 -0.01255,0 -0.936989,-0.91482 -2.0543089,-2.032932 z"
       id="path460"
       transform="translate(32.999997,349.3639)" />
    <path
       style="fill:#00ffff;stroke-width:0.0883883;fill-opacity:1"
       d="M 13.037281,10.954136 V 8.0313022 l 0.251434,0.1790367 c 1.369842,0.9754136 1.83871,2.8022001 1.10422,4.3022241 -0.224847,0.459197 -1.062098,1.364408 -1.261974,1.364408 -0.06409,0 -0.09368,-0.92315 -0.09368,-2.922835 z"
       id="path462"
       transform="translate(32.999997,349.3639)" />
    <path
       style="fill:#00ffff;stroke-width:0.0883883;fill-opacity:1"
       d="m 13.037281,17.25976 v -0.70224 l 0.772303,-0.382691 c 1.516039,-0.751227 2.732777,-2.308673 3.072648,-3.933043 C 17.295435,10.266931 16.733572,8.382685 15.297417,6.9270052 14.708341,6.3299198 14.436827,6.1295885 13.807192,5.8274681 L 13.037281,5.4580392 V 4.7619516 c 0,-0.4987375 0.03132,-0.6956661 0.110486,-0.6946007 0.23775,0.0032 1.551324,0.5943495 2.032931,0.9148839 2.095404,1.3945982 3.255451,3.5336541 3.259296,6.0099462 0.0039,2.502436 -1.185721,4.685278 -3.281392,6.021115 -0.591242,0.376873 -1.449691,0.783078 -1.878253,0.888762 l -0.243068,0.05994 z"
       id="path464"
       transform="translate(32.999997,349.3639)" />
  </g>
  <g
     inkscape:groupmode="layer"
     id="layer2"
     inkscape:label="animations"
     transform="translate(-32.999997,102.99826)" />
</svg>
